# xmcd CD database file
#
# Track frame offsets:
#	150
#	16672
#	35567
#	49675
#	71755
#	92695
#	108257
#	125622
#	143080
#	158017
#	182730
#	201750
#
# Disc length: 2899 seconds
#
# Revision: 1
# Processed by: cddbd v1.5PL3 Copyright (c) Steve Scherf et al.
# Submitted via: CDex 1.50
#
DISCID=9c0b510c
DTITLE=Elmar Frittel - Schmetterling
DYEAR=1993
DGENRE=Jazz
TTITLE0=Verliebt
TTITLE1=Joe's Garage
TTITLE2=Ich brech die Herzen
TTITLE3=Sieta
TTITLE4=Nachtwanderung
TTITLE5=Ich bin ich
TTITLE6=Meine kleine Insel
TTITLE7=La Nina
TTITLE8=Schmetterling
TTITLE9=Dream Of Paradise
TTITLE10=Waiting
TTITLE11=For A Little Sweet Girl
EXTD=YEAR: 1993
EXTT0=
EXTT1=
EXTT2=
EXTT3=
EXTT4=
EXTT5=
EXTT6=
EXTT7=
EXTT8=
EXTT9=
EXTT10=
EXTT11=
PLAYORDER=
